<svg width="93" height="90" viewBox="0 0 93 90" fill="none" xmlns="http://www.w3.org/2000/svg">
<g filter="url(#filter0_dd_816_5230)">
<g style="mix-blend-mode:multiply" opacity="0.2">
<path d="M85.9868 44.5617V77.2188C85.9835 77.737 85.8777 78.2495 85.6756 78.7267C85.4734 79.2039 85.1789 79.6364 84.8089 79.9993C84.4389 80.3622 84.0008 80.6484 83.5198 80.8413C83.0388 81.0342 82.5243 81.1301 82.0061 81.1234H28.2796C27.7635 81.1267 27.2518 81.0284 26.7737 80.834C26.2956 80.6395 25.8605 80.3529 25.4932 79.9903C25.1259 79.6277 24.8336 79.1963 24.6331 78.7208C24.4325 78.2452 24.3275 77.7348 24.3242 77.2188V44.5617C24.3236 44.8679 24.4057 45.1685 24.562 45.4319C24.7182 45.6952 24.9426 45.9114 25.2116 46.0576L28.8627 48.086V11.8032C28.8143 10.8455 29.1473 9.90761 29.7888 9.19482C30.4303 8.48204 31.3281 8.05243 32.2856 8H77.924C78.8815 8.05243 79.7793 8.48204 80.4208 9.19482C81.0623 9.90761 81.3953 10.8455 81.3469 11.8032V48.1114L85.1755 46.083C85.4341 45.9249 85.6458 45.7004 85.7885 45.4329C85.9311 45.1654 85.9996 44.8646 85.9868 44.5617Z" fill="white"/>
</g>
<g style="mix-blend-mode:multiply" opacity="0.12">
<path d="M85.9985 44.5617V77.2188C85.9952 77.737 85.8895 78.2495 85.6873 78.7267C85.4851 79.2039 85.1906 79.6364 84.8206 79.9993C84.4506 80.3622 84.0125 80.6484 83.5315 80.8413C83.0505 81.0342 82.5361 81.1301 82.0178 81.1234H28.2913C27.7752 81.1267 27.2635 81.0284 26.7854 80.834C26.3073 80.6395 25.8722 80.3529 25.5049 79.9903C25.1376 79.6277 24.8453 79.1963 24.6448 78.7208C24.4442 78.2452 24.3393 77.7348 24.3359 77.2188V44.5617C24.3353 44.8679 24.4175 45.1685 24.5737 45.4319C24.7299 45.6952 24.9544 45.9114 25.2234 46.0576L28.8744 48.086V11.8032C28.8261 10.8455 29.1591 9.90761 29.8006 9.19482C30.4421 8.48204 31.3398 8.05243 32.2973 8H77.9357C78.8932 8.05243 79.791 8.48204 80.4325 9.19482C81.074 9.90761 81.407 10.8455 81.3586 11.8032V48.1114L85.1872 46.083C85.4459 45.9249 85.6575 45.7004 85.8002 45.4329C85.9429 45.1654 86.0113 44.8646 85.9985 44.5617Z" fill="white"/>
</g>
<path d="M85.9884 44.5625C85.994 44.2613 85.9195 43.9641 85.7725 43.7012C85.6255 43.4384 85.4112 43.2193 85.1517 43.0665L59.5181 26.8141H59.1378C58.6069 26.5466 58.0207 26.4072 57.4263 26.4072C56.8319 26.4072 56.2457 26.5466 55.7149 26.8141L55.3345 27.0423L27.4444 43.1679C27.1783 43.3154 26.9574 43.5326 26.8056 43.7962C26.6537 44.0597 26.5765 44.3597 26.5823 44.6639C26.5771 44.9743 26.6571 45.2803 26.8135 45.5485C26.97 45.8167 27.1969 46.0369 27.4698 46.1852L55.3599 62.3109L55.7402 62.5391C56.2711 62.8066 56.8572 62.9459 57.4517 62.9459C58.0461 62.9459 58.6323 62.8066 59.1631 62.5391L59.5434 62.3109L85.177 46.0837C85.4357 45.9256 85.6474 45.7012 85.79 45.4337C85.9327 45.1662 86.0012 44.8654 85.9884 44.5625Z" fill="#123B6D"/>
<path d="M47.1518 35.4102H28.8711V52.1697H47.1518V35.4102Z" fill="#0364B8"/>
<path d="M81.4263 19.4097V11.8032C81.4747 10.8455 81.1417 9.90761 80.5002 9.19482C79.8587 8.48204 78.9609 8.05243 78.0034 8H32.365C31.4075 8.05243 30.5097 8.48204 29.8682 9.19482C29.2267 9.90761 28.8937 10.8455 28.9421 11.8032V19.4097H81.4263Z" fill="#0358A7"/>
<path d="M47.1518 19.4102H28.8711V35.4091H47.1518V19.4102Z" fill="#0078D4"/>
<path d="M65.4331 19.4102H47.1523V35.4091H65.4331V19.4102Z" fill="#28A8EA"/>
<path d="M81.4246 19.4102H65.4258V35.4091H81.4246V19.4102Z" fill="#50D9FF"/>
<path d="M81.4246 35.4102H65.4258V52.1697H81.4246V35.4102Z" fill="#28A8EA"/>
<path d="M65.4331 35.4102H47.1523V52.1697H65.4331V35.4102Z" fill="#0078D4"/>
<path d="M65.4331 52.1689H47.1523V68.9285H65.4331V52.1689Z" fill="#0364B8"/>
<path d="M47.1518 52.1689H28.8711V67.4072H47.1518V52.1689Z" fill="#14447D"/>
<path d="M81.4246 52.1689H65.4258V68.9285H81.4246V52.1689Z" fill="#0078D4"/>
<g style="mix-blend-mode:multiply" opacity="0.35">
<path d="M85.1874 46.0584L58.4636 62.3109L58.0833 62.5391C57.5292 62.8046 56.9228 62.9432 56.3084 62.9448C55.6859 62.9427 55.0715 62.8042 54.5083 62.5391C54.3761 62.4725 54.2489 62.3962 54.1279 62.3109L25.2236 46.0838C24.9508 45.9355 24.7238 45.7153 24.5673 45.4471C24.4109 45.1789 24.3309 44.873 24.3362 44.5625V77.2196C24.3395 77.7378 24.4453 78.2503 24.6474 78.7275C24.8496 79.2047 25.1441 79.6372 25.5141 80.0001C25.8841 80.363 26.3222 80.6492 26.8032 80.8421C27.2842 81.035 27.7986 81.1309 28.3169 81.1242H82.0181C82.5363 81.1309 83.0507 81.035 83.5317 80.8421C84.0128 80.6492 84.4509 80.363 84.8208 80.0001C85.1908 79.6372 85.4854 79.2047 85.6875 78.7275C85.8897 78.2503 85.9955 77.7378 85.9988 77.2196V44.5625C86.007 44.8612 85.9364 45.1567 85.7939 45.4194C85.6515 45.682 85.4423 45.9025 85.1874 46.0584Z" fill="white"/>
</g>
<g style="mix-blend-mode:multiply" opacity="0.06">
<path d="M85.1796 46.0575L58.4558 62.3099L58.0755 62.5381C57.5214 62.8036 56.915 62.9422 56.3006 62.9438C55.6781 62.9417 55.0637 62.8033 54.5004 62.5381C54.3682 62.4715 54.2411 62.3952 54.1201 62.3099L25.2158 46.0828C24.943 45.9346 24.716 45.7144 24.5595 45.4462C24.4031 45.1779 24.3231 44.872 24.3284 44.5615V77.2186C24.3317 77.7368 24.4374 78.2493 24.6396 78.7265C24.8418 79.2037 25.1363 79.6362 25.5063 79.9991C25.8763 80.3621 26.3144 80.6482 26.7954 80.8411C27.2764 81.034 27.7908 81.1299 28.3091 81.1232H82.0103C82.5285 81.1299 83.0429 81.034 83.5239 80.8411C84.0049 80.6482 84.443 80.3621 84.813 79.9991C85.183 79.6362 85.4776 79.2037 85.6797 78.7265C85.8819 78.2493 85.9877 77.7368 85.991 77.2186V44.5615C85.9992 44.8602 85.9286 45.1558 85.7861 45.4184C85.6437 45.6811 85.4344 45.9015 85.1796 46.0575Z" fill="white"/>
</g>
<path d="M85.1874 46.0575L58.4636 62.3099L58.0833 62.5381C57.5292 62.8036 56.9228 62.9422 56.3084 62.9438C55.6859 62.9417 55.0715 62.8033 54.5083 62.5381C54.3761 62.4715 54.2489 62.3952 54.1279 62.3099L25.2236 46.0828C24.9508 45.9346 24.7238 45.7144 24.5673 45.4462C24.4109 45.1779 24.3309 44.872 24.3362 44.5615V77.2186C24.3395 77.7368 24.4453 78.2493 24.6474 78.7265C24.8496 79.2037 25.1441 79.6362 25.5141 79.9991C25.8841 80.3621 26.3222 80.6482 26.8032 80.8411C27.2842 81.034 27.7986 81.1299 28.3169 81.1232H82.0181C82.5457 81.1375 83.0707 81.0433 83.5604 80.8464C84.0501 80.6495 84.4941 80.354 84.865 79.9784C85.2358 79.6028 85.5256 79.155 85.7162 78.6629C85.9069 78.1707 85.9944 77.6446 85.9734 77.1172V44.5615C85.9843 44.8578 85.9175 45.1517 85.7796 45.4142C85.6417 45.6766 85.4376 45.8984 85.1874 46.0575Z" fill="url(#paint0_linear_816_5230)"/>
<path d="M28.2662 81.1232H82.0689C82.9074 81.1233 83.7242 80.857 84.4015 80.3626L54.2041 61.9042L53.8238 61.676L25.2237 45.094L24.3363 44.5615V77.0918C24.3296 77.6146 24.4259 78.1335 24.6198 78.6191C24.8137 79.1046 25.1013 79.5472 25.4662 79.9215C25.8312 80.2959 26.2663 80.5947 26.7467 80.8009C27.2271 81.0071 27.7435 81.1166 28.2662 81.1232Z" fill="url(#paint1_linear_816_5230)"/>
<path style="mix-blend-mode:soft-light" opacity="0.75" d="M85.9985 44.6885C86.0042 44.3873 85.9297 44.0901 85.7827 43.8272C85.6356 43.5644 85.4214 43.3453 85.1618 43.1925L81.4854 41.0627V11.8032C81.5338 10.8455 81.2008 9.90761 80.5593 9.19482C79.9178 8.48204 79.02 8.05243 78.0625 8H32.4241C31.4666 8.05243 30.5688 8.48204 29.9273 9.19482C29.2858 9.90761 28.9528 10.8455 29.0012 11.8032V48.1114L25.3501 46.083C25.0536 45.9525 24.8006 45.74 24.6209 45.4704C24.4412 45.2009 24.3423 44.8856 24.3359 44.5617V77.2188C24.3392 77.737 24.445 78.2495 24.6472 78.7267C24.8493 79.2039 25.1439 79.6364 25.5139 79.9993C25.8838 80.3622 26.3219 80.6484 26.803 80.8413C27.284 81.0342 27.7984 81.1301 28.3166 81.1234H82.0178C82.5361 81.1301 83.0505 81.0342 83.5315 80.8413C84.0125 80.6484 84.4506 80.3622 84.8206 79.9993C85.1906 79.6364 85.4851 79.2039 85.6873 78.7267C85.8895 78.2495 85.9952 77.737 85.9985 77.2188V44.6885Z" fill="url(#paint2_linear_816_5230)"/>
</g>
<g filter="url(#filter1_dd_816_5230)">
<g style="mix-blend-mode:multiply" opacity="0.48">
<path d="M43.7278 24.001H9.42288C7.53248 24.001 6 25.5335 6 27.4239V61.729C6 63.6194 7.53248 65.1519 9.42288 65.1519H43.7278C45.6182 65.1519 47.1506 63.6194 47.1506 61.729V27.4239C47.1506 25.5335 45.6182 24.001 43.7278 24.001Z" fill="white"/>
</g>
<g style="mix-blend-mode:multiply" opacity="0.24">
<path d="M43.7278 23.998H9.42288C7.53248 23.998 6 25.5305 6 27.421V61.7261C6 63.6165 7.53248 65.149 9.42288 65.149H43.7278C45.6182 65.149 47.1506 63.6165 47.1506 61.7261V27.421C47.1506 25.5305 45.6182 23.998 43.7278 23.998Z" fill="white"/>
</g>
<path d="M43.7278 24.002H9.42288C7.53248 24.002 6 25.5344 6 27.4249V61.73C6 63.6204 7.53248 65.1529 9.42288 65.1529H43.7278C45.6182 65.1529 47.1506 63.6204 47.1506 61.73V27.4249C47.1506 25.5344 45.6182 24.002 43.7278 24.002Z" fill="#0F78D4"/>
<path style="mix-blend-mode:soft-light" opacity="0.5" d="M43.7317 24.002H9.42679C7.53638 24.002 6.00391 25.5344 6.00391 27.4249V61.73C6.00391 63.6204 7.53638 65.1529 9.42679 65.1529H43.7317C45.6221 65.1529 47.1546 63.6204 47.1546 61.73V27.4249C47.1546 25.5344 45.6221 24.002 43.7317 24.002Z" fill="url(#paint3_linear_816_5230)"/>
<path d="M17.2805 38.9106C18.0636 37.2297 19.3362 35.8245 20.9316 34.8792C22.7363 33.855 24.791 33.3545 26.8645 33.434C28.7556 33.3917 30.6225 33.865 32.2651 34.8031C33.7921 35.7224 35.0239 37.0597 35.8148 38.6571C36.6529 40.4302 37.0612 42.376 37.0064 44.3365C37.0487 46.3966 36.6058 48.4377 35.7133 50.2949C34.8855 51.9733 33.5683 53.3612 31.9355 54.2757C30.2437 55.2569 28.3125 55.7485 26.3575 55.6955C24.4299 55.7474 22.5256 55.2647 20.8555 54.301C19.3023 53.3986 18.0499 52.058 17.2551 50.4471C16.3788 48.7026 15.9436 46.77 15.9874 44.8183C15.9622 42.7762 16.4045 40.7554 17.2805 38.9106ZM21.1597 48.4187C21.6142 49.4341 22.3321 50.3095 23.2388 50.9542C24.1761 51.6029 25.2939 51.94 26.4335 51.9176C27.6636 51.9712 28.8766 51.6145 29.8818 50.9035C30.7788 50.2679 31.4741 49.3878 31.8848 48.368C32.3373 47.1524 32.5525 45.8613 32.5186 44.5647C32.5296 43.3237 32.3325 42.0895 31.9355 40.9136C31.5764 39.8242 30.9066 38.8636 30.0085 38.15C29.0337 37.4119 27.8327 37.0354 26.611 37.0851C25.4348 37.0538 24.2796 37.4003 23.3149 38.0739C22.3954 38.7114 21.6676 39.5882 21.2105 40.6094C20.6955 41.8631 20.4452 43.2097 20.4752 44.5647C20.4509 45.8816 20.6835 47.1907 21.1597 48.4187Z" fill="white"/>
</g>
<defs>
<filter id="filter0_dd_816_5230" x="18.8893" y="5.67076" width="73.322" height="83.9948" filterUnits="userSpaceOnUse" color-interpolation-filters="sRGB">
<feFlood flood-opacity="0" result="BackgroundImageFix"/>
<feColorMatrix in="SourceAlpha" type="matrix" values="0 0 0 0 0 0 0 0 0 0 0 0 0 0 0 0 0 0 127 0" result="hardAlpha"/>
<feOffset dx="2.32924" dy="2.32924"/>
<feGaussianBlur stdDeviation="1.94103"/>
<feComposite in2="hardAlpha" operator="out"/>
<feColorMatrix type="matrix" values="0 0 0 0 0 0 0 0 0 0 0 0 0 0 0 0 0 0 0.25 0"/>
<feBlend mode="normal" in2="BackgroundImageFix" result="effect1_dropShadow_816_5230"/>
<feColorMatrix in="SourceAlpha" type="matrix" values="0 0 0 0 0 0 0 0 0 0 0 0 0 0 0 0 0 0 127 0" result="hardAlpha"/>
<feOffset dy="3.10566"/>
<feGaussianBlur stdDeviation="2.71745"/>
<feComposite in2="hardAlpha" operator="out"/>
<feColorMatrix type="matrix" values="0 0 0 0 0 0 0 0 0 0 0 0 0 0 0 0 0 0 0.15 0"/>
<feBlend mode="normal" in2="effect1_dropShadow_816_5230" result="effect2_dropShadow_816_5230"/>
<feBlend mode="normal" in="SourceGraphic" in2="effect2_dropShadow_816_5230" result="shape"/>
</filter>
<filter id="filter1_dd_816_5230" x="0.565103" y="21.6688" width="52.8025" height="52.0251" filterUnits="userSpaceOnUse" color-interpolation-filters="sRGB">
<feFlood flood-opacity="0" result="BackgroundImageFix"/>
<feColorMatrix in="SourceAlpha" type="matrix" values="0 0 0 0 0 0 0 0 0 0 0 0 0 0 0 0 0 0 127 0" result="hardAlpha"/>
<feOffset dx="2.32924" dy="2.32924"/>
<feGaussianBlur stdDeviation="1.94103"/>
<feComposite in2="hardAlpha" operator="out"/>
<feColorMatrix type="matrix" values="0 0 0 0 0 0 0 0 0 0 0 0 0 0 0 0 0 0 0.25 0"/>
<feBlend mode="normal" in2="BackgroundImageFix" result="effect1_dropShadow_816_5230"/>
<feColorMatrix in="SourceAlpha" type="matrix" values="0 0 0 0 0 0 0 0 0 0 0 0 0 0 0 0 0 0 127 0" result="hardAlpha"/>
<feOffset dy="3.10566"/>
<feGaussianBlur stdDeviation="2.71745"/>
<feComposite in2="hardAlpha" operator="out"/>
<feColorMatrix type="matrix" values="0 0 0 0 0 0 0 0 0 0 0 0 0 0 0 0 0 0 0.15 0"/>
<feBlend mode="normal" in2="effect1_dropShadow_816_5230" result="effect2_dropShadow_816_5230"/>
<feBlend mode="normal" in="SourceGraphic" in2="effect2_dropShadow_816_5230" result="shape"/>
</filter>
<linearGradient id="paint0_linear_816_5230" x1="76.2879" y1="36.3973" x2="33.8185" y2="87.0053" gradientUnits="userSpaceOnUse">
<stop stop-color="#35B8F1"/>
<stop offset="0.9" stop-color="#0F78D1"/>
</linearGradient>
<linearGradient id="paint1_linear_816_5230" x1="54.3562" y1="44.5615" x2="54.3562" y2="81.1232" gradientUnits="userSpaceOnUse">
<stop stop-color="#35B8F1"/>
<stop offset="1" stop-color="#28A8EA"/>
</linearGradient>
<linearGradient id="paint2_linear_816_5230" x1="35.05" y1="3.22421" x2="86.4131" y2="78.2343" gradientUnits="userSpaceOnUse">
<stop stop-color="white" stop-opacity="0.5"/>
<stop offset="1" stop-opacity="0.7"/>
</linearGradient>
<linearGradient id="paint3_linear_816_5230" x1="13.1539" y1="21.3143" x2="40.0048" y2="67.815" gradientUnits="userSpaceOnUse">
<stop stop-color="white" stop-opacity="0.5"/>
<stop offset="1" stop-opacity="0.7"/>
</linearGradient>
</defs>
</svg>
