<svg width="97" height="100" viewBox="0 0 97 100" fill="none" xmlns="http://www.w3.org/2000/svg">
<g clip-path="url(#clip0_1351_254)">
<path d="M56.3796 97.5965C53.8491 100.783 48.7182 99.0372 48.6572 94.9682L47.7656 35.4537H87.7831C95.0313 35.4537 99.0738 43.8255 94.5667 49.5021L56.3796 97.5965Z" fill="url(#paint0_linear_1351_254)"/>
<path d="M56.3796 97.5965C53.8491 100.783 48.7182 99.0372 48.6572 94.9682L47.7656 35.4537H87.7831C95.0313 35.4537 99.0738 43.8255 94.5667 49.5021L56.3796 97.5965Z" fill="url(#paint1_linear_1351_254)" fill-opacity="0.2"/>
<path d="M40.1052 1.83277C42.6357 -1.35431 47.7667 0.391984 47.8276 4.46107L48.2183 63.9754H8.70173C1.45328 63.9754 -2.58931 55.6036 1.91799 49.927L40.1052 1.83277Z" fill="#3ECF8E"/>
</g>
<defs>
<linearGradient id="paint0_linear_1351_254" x1="47.7656" y1="48.6496" x2="83.3317" y2="63.5659" gradientUnits="userSpaceOnUse">
<stop stop-color="#249361"/>
<stop offset="1" stop-color="#3ECF8E"/>
</linearGradient>
<linearGradient id="paint1_linear_1351_254" x1="31.9975" y1="27.0602" x2="48.2175" y2="57.5935" gradientUnits="userSpaceOnUse">
<stop/>
<stop offset="1" stop-opacity="0"/>
</linearGradient>
<clipPath id="clip0_1351_254">
<rect width="96.4602" height="100" fill="white"/>
</clipPath>
</defs>
</svg>
