<svg width="159" height="224" viewBox="0 0 159 224" fill="none" xmlns="http://www.w3.org/2000/svg">
<path d="M93.1924 165.505C93.4495 165.825 98.622 164.123 102.339 170.48C105.265 175.48 104.362 181.958 104.26 181.769C109.287 175.315 115.542 171.106 120.243 165.757C120.374 165.878 112.504 166.732 109.695 162.726C107.249 159.245 107.865 154.289 107.385 153.891C101.883 158.008 98.6948 161.388 93.1924 165.505Z" fill="#131111"/>
<path d="M40.4346 116.198C40.7354 116.479 46.0777 115.111 50.4883 118.724C54.899 122.337 54.1566 129.79 54.0256 129.616C58.0626 122.502 64.88 116.969 68.7521 110.994C68.8976 111.096 61.7455 111.998 57.8006 109.045C55.195 107.096 54.9572 100.695 54.4283 100.37C49.581 105.243 45.2771 111.329 40.4346 116.202V116.198Z" fill="#131111"/>
<path d="M52.9289 151.991C53.0794 159.691 52.1041 159.934 49.0957 164.022C46.0873 168.11 38.8236 168.949 38.974 168.793C46.6162 171.713 50.8716 176.824 57.3639 179.758C57.2862 179.918 56.1751 173.458 58.6642 168.784C60.6634 165.026 67.4273 165.995 67.6699 165.423C62.119 161.369 58.475 156.045 52.9241 151.991H52.9289Z" fill="#131111"/>
<path d="M96.3317 111.024H64.2101C57.9796 111.024 52.9287 116.072 52.9287 122.298V154.4C52.9287 160.627 57.9796 165.675 64.2101 165.675H96.3317C102.562 165.675 107.613 160.627 107.613 154.4V122.298C107.613 116.072 102.562 111.024 96.3317 111.024Z" fill="#131111"/>
<path d="M147.474 165.675H115.353C109.122 165.675 104.071 170.723 104.071 176.95V209.052C104.071 215.279 109.122 220.326 115.353 220.326H147.474C153.705 220.326 158.756 215.279 158.756 209.052V176.95C158.756 170.723 153.705 165.675 147.474 165.675Z" fill="#131111"/>
<path d="M46.0768 168.42H13.9552C7.72468 168.42 2.67383 173.468 2.67383 179.695V211.797C2.67383 218.023 7.72468 223.071 13.9552 223.071H46.0768C52.3074 223.071 57.3582 218.023 57.3582 211.797V179.695C57.3582 173.468 52.3074 168.42 46.0768 168.42Z" fill="#131111"/>
<path d="M43.3982 116.721H11.2814C5.05115 116.721 0 111.673 0 105.446V73.3443C0 67.1179 5.05115 62.0698 11.2814 62.0698H43.3982C49.6284 62.0698 54.6795 67.1179 54.4272 73.2377V105.335C54.6795 111.673 49.6284 116.721 43.3982 116.721Z" fill="#131111"/>
</svg>
